<?xml version="1.0" encoding="utf-8"?>
<!-- Generator: Adobe Illustrator 27.5.0, SVG Export Plug-In . SVG Version: 6.00 Build 0)  -->
<svg version="1.1" xmlns="http://www.w3.org/2000/svg" xmlns:xlink="http://www.w3.org/1999/xlink" x="0px" y="0px"
	 viewBox="0 0 750 500" style="enable-background:new 0 0 750 500;" xml:space="preserve">
<g id="BACKGROUND">
	<rect style="fill:#F9CB93;" width="750" height="500"/>
</g>
<g id="OBJECTS">
	<g>
		<defs>
			<rect id="SVGID_1_" width="750" height="500"/>
		</defs>
		<clipPath id="SVGID_00000016053187461242240870000005399018373601644186_">
			<use xlink:href="#SVGID_1_"  style="overflow:visible;"/>
		</clipPath>
		<g style="clip-path:url(#SVGID_00000016053187461242240870000005399018373601644186_);">
			<path style="fill:#EC3B00;" d="M837.304,97.4c-6.497-17.856-14.736-35.055-24.773-51.245
				C756.133-44.813,650.933-94.16,546.806-118.932c-137.19-32.638-281.398-30.937-419.867-4.24
				c-47.444,9.147-95.588,21.755-134.845,49.923c-78.531,56.348-82.2,167.371-28.882,243.116
				c24.413,34.681,61.924,60.619,103.676,68.07c72.958,13.021,144.115-29.431,218.035-34.736
				c90.061-6.464,181.308,48.887,217.185,131.747c12.854,29.686,18.988,61.804,29.6,92.363c10.612,30.56,26.881,60.85,54.017,78.461
				c35.752,23.203,84.384,19.247,121.716-1.317c37.332-20.564,64.906-55.254,86.823-91.808
				c33.087-55.185,55.696-117.289,60.625-181.444C858.359,186.041,852.754,139.861,837.304,97.4z"/>
			<g>
				<path style="fill:#F49600;" d="M311.012,43.225C293.46-3.161,248.317-42.428,205.44-60.589
					c-37.833-16.025-80.73-19.53-120.762-10.466c-36.471,8.257-73.884,21.86-97.112,52.979
					C-39.727,18.489-49.23,68.077-37.933,112.228c4.88,19.072,13.745,37.106,26.403,52.227
					c21.519,25.705,52.749,43.078,85.937,47.805c36.875,5.253,74.051-4.604,109.952-14.53c31.369-8.673,63.378-17.779,90.04-36.445
					c27.627-19.342,46.29-50.722,43.98-85.108C317.624,64.93,315.047,53.889,311.012,43.225z"/>
				<path style="fill:#F9CB93;" d="M275.35,30.791c-13.619-31.294-41.139-56.34-72.937-69.485
					c-37.885-15.661-81.003-15.689-120.769-5.729C52.477-37.118,23.841-24.028,3.71-1.694C-13.111,16.966-23.095,41.3-26.107,66.242
					c-4.545,37.645,8.261,78.883,38.825,101.326c27.207,19.978,63.225,22.437,96.975,21.934
					c61.039-0.91,142.055-12.741,167.426-78.335c7.544-19.505,9.293-41.378,4.457-61.758
					C280.055,43.001,277.957,36.782,275.35,30.791z"/>
				<path style="fill:#601200;" d="M7.166,128.561c15.783,23.304,41.888,39.438,69.658,45.274
					c33.086,6.954,68.043,0.442,98.771-13.659c22.537-10.342,43.766-25.294,56.702-46.45c10.808-17.677,15.213-38.916,13.874-59.592
					c-2.021-31.206-18.652-62.695-46.83-76.256c-25.083-12.072-54.654-8.607-81.938-3.084C68.059-15.217,4.176,6.653-6.45,63.672
					c-3.16,16.955-1.262,34.952,5.747,50.74C1.501,119.376,4.144,124.1,7.166,128.561z"/>
				<path style="fill:#F49600;" d="M223.102,44.873c-1.607-15.365-8.136-29.908-20.053-39.617
					c-17.471-14.235-42.119-15.547-64.489-12.816C96.862-2.47,54.425,16.562,32.69,52.511C24.535,65.998,19.561,81.913,21.536,97.55
					c3.619,28.651,30.446,50.363,58.838,55.648c54.629,10.169,118.38-21.479,138.381-74.43
					C222.781,68.107,224.294,56.264,223.102,44.873z"/>
				<path style="fill:#F9CB93;" d="M45.351,91.489c0.776,11.65,5.36,22.829,14.233,30.524
					c13.008,11.281,31.923,13.025,49.207,11.646c32.219-2.571,65.423-15.644,83.215-42.123c6.675-9.934,10.978-21.799,9.928-33.665
					c-1.924-21.743-21.903-38.954-43.577-43.812C116.652,4.713,66.68,26.661,49.711,66.03
					C46.295,73.956,44.777,82.852,45.351,91.489z"/>
				<path style="fill:#EC3B00;" d="M58.479,96.681c0.515,7.736,3.559,15.159,9.45,20.268c8.637,7.491,21.197,8.648,32.673,7.733
					c21.393-1.707,43.441-10.388,55.255-27.969c4.432-6.596,7.289-14.474,6.592-22.354c-1.278-14.437-14.544-25.866-28.935-29.091
					c-27.691-6.206-60.873,8.368-72.14,34.508C59.105,85.039,58.097,90.946,58.479,96.681z"/>
				<path style="fill:#601200;" d="M86.329,83.647c0.326,4.897,2.253,9.597,5.983,12.832c5.468,4.743,13.42,5.476,20.686,4.896
					c13.545-1.081,27.503-6.576,34.982-17.708c2.806-4.176,4.615-9.164,4.174-14.152c-0.809-9.14-9.208-16.376-18.319-18.418
					c-17.532-3.929-38.54,5.298-45.673,21.848C86.726,76.277,86.088,80.017,86.329,83.647z"/>
			</g>
			<path style="fill:#F49600;" d="M820.657,168.34c-9.605-49.069-30.806-95.864-62.201-134.764
				c-44.019-54.542-106.42-92.435-172.957-114.465s-137.263-28.963-207.353-28.941c-37.342,0.012-74.684,1.956-111.826,5.821
				c-8.885,0.925-19.101,2.816-23.401,10.645c-6.633,12.078,6.414,24.813,16.489,34.214
				c97.844,91.302,93.679,160.694,50.031,213.382c-7.676,9.266-9.008,26.779,1.423,32.775c3.252,1.869,7.166,2.069,10.914,2.223
				c51.221,2.105,104.51,11.274,145.933,43.657c27.202,21.265,48.747,49.597,62.483,81.241
				c14.804,34.104,18.754,71.843,31.106,106.822c9.521,26.963,24.465,54.04,49.757,67.38c23.82,12.564,53.467,10.566,78.039-0.456
				c24.572-11.022,44.676-30.129,61.783-50.929c46.231-56.21,73.72-127.848,75.553-200.605
				C827.006,213.556,825.037,190.712,820.657,168.34z"/>
			<g>
				<g>
					<path style="fill:#F9CB93;" d="M652.583,178.463c-5.319,50.235-18.096,99.675-37.791,146.194
						c-2.992,7.068-6.754,14.688-13.84,17.638c-7.185,2.991-15.716,0.004-21.504-5.199c-5.788-5.203-9.472-12.277-13.3-19.054
						c-41.303-73.107-114.273-127.583-196.105-146.402c-11.902-2.737-26.702-7.584-27.821-19.745
						c-0.55-5.975,2.714-11.536,5.37-16.917C380.977,67.333,321.1,8.21,292.418-47.9c-3.969-7.763-7.052-18.43-0.512-24.196
						c4.009-3.535,9.953-3.438,15.287-3.116c41.39,2.498,82.691,6.684,123.663,13.062c40.629,6.325,81.393,14.96,118.446,32.786
						c37.054,17.826,70.445,45.693,88.418,82.676c17.984,37.006,19.284,79.939,15.295,120.889
						C652.877,175.622,652.733,177.043,652.583,178.463z"/>
				</g>
				<g>
					<path style="fill:#601200;" d="M626.953,161.565c-4.386,41.427-14.923,82.199-31.165,120.562
						c-2.468,5.828-5.57,12.113-11.413,14.545c-5.925,2.467-12.961,0.003-17.734-4.288c-4.773-4.291-7.811-10.125-10.968-15.713
						c-34.061-60.289-94.238-105.214-161.722-120.733c-9.815-2.257-22.02-6.254-22.943-16.283
						c-0.454-4.928,2.238-9.513,4.428-13.951c27.532-55.784-21.847-104.541-45.5-150.814c-3.273-6.402-5.815-15.199-0.422-19.954
						c3.306-2.915,8.207-2.835,12.607-2.57c34.133,2.06,68.193,5.512,101.981,10.772c33.506,5.216,67.122,12.337,97.679,27.038
						c30.557,14.701,58.094,37.681,72.915,68.18c14.831,30.517,15.902,65.923,12.613,99.694
						C627.196,159.223,627.077,160.394,626.953,161.565z"/>
				</g>
				<g>
					<path style="fill:#EC3B00;" d="M599.111,144.674c-3.395,32.063-11.55,63.619-24.12,93.31c-1.91,4.511-4.311,9.375-8.833,11.257
						c-4.586,1.909-10.031,0.003-13.725-3.318c-3.694-3.321-6.045-7.836-8.489-12.161c-26.362-46.661-72.936-81.431-125.166-93.443
						c-7.597-1.747-17.043-4.841-17.757-12.603c-0.351-3.814,1.732-7.363,3.427-10.797c21.309-43.174-16.909-80.911-35.215-116.724
						c-2.533-4.955-4.501-11.763-0.327-15.443c2.559-2.256,6.352-2.194,9.757-1.989c26.418,1.594,52.778,4.266,78.929,8.337
						c25.932,4.037,51.95,9.548,75.599,20.926c23.65,11.378,44.962,29.164,56.434,52.769c11.478,23.619,12.308,51.022,9.762,77.159
						C599.299,142.861,599.207,143.768,599.111,144.674z"/>
				</g>
				<path style="fill:#F49600;" d="M535.542,51.757C522.198,38.46,506.36,27.56,489.697,18.652
					c-15.795-8.443-32.464-15.248-49.655-20.271c-7.449-2.176-15.392-4.021-22.892-2.028c-17.552,4.666-15.79,26.038-5.916,37.098
					c4.901,5.489,10.992,9.861,15.577,15.616c7.535,9.458,10.389,22.473,7.501,34.215c-2.266,9.213-7.866,18.145-6.122,27.47
					c2.375,12.694,16.517,18.8,28.521,23.564c20.644,8.192,40.441,18.519,58.972,30.762c10.776,7.12,23.273,15.277,35.599,11.418
					c11.505-3.602,17.474-16.36,19.576-28.232c4.756-26.852-3.594-55.009-19.188-77.381
					C546.88,64.015,541.456,57.651,535.542,51.757z"/>
				<path style="fill:#F9CB93;" d="M528.687,74.527c-0.308-0.503-0.621-1.003-0.936-1.5c-12.59-19.83-30.956-36.137-52.598-45.268
					c-3.785-1.597-7.99-2.992-11.932-1.84c-4.773,1.395-7.862,6.348-8.369,11.294c-0.507,4.947,1.108,9.867,3.132,14.409
					c2.274,5.104,4.929,10.11,6.702,15.413c1.678,5.018,1.226,10.294,1.972,15.463c0.909,6.301,1.999,12.587,3.716,18.724
					c3.274,11.701,9.09,23.113,18.671,30.584s23.412,10.224,34.182,4.601c10.584-5.526,16.237-18.039,16.11-29.978
					C539.215,95.078,534.637,84.23,528.687,74.527z"/>
			</g>
			<g>
				<g>
					<path style="fill:#601200;" d="M807.461,245.207c-1.187,46.023-9.182,92.2-29.041,133.717
						c-11.854,24.782-28.287,48.083-51.033,63.746c-22.746,15.663-52.442,22.847-78.909,14.717
						c-26.467-8.13-47.889-33.37-47.119-60.776c0.579-20.592,12.422-38.363,22.542-55.582
						c10.954-18.638,16.527-37.967,23.293-58.239c2.898-8.684,5.731-17.389,8.425-26.137c5.375-17.451,10.233-35.074,13.981-52.942
						c7.371-35.143,10.38-71.525,4.126-107.076c-8.093-46.002-31.815-88.494-65.023-121.814c-6.59-6.612,0.766-17.465,9.317-13.718
						c22.905,10.037,45.227,21.263,66.298,34.638c37.069,23.531,70.351,54.159,91.607,92.321
						c23.885,42.88,31.415,92.965,31.685,141.924C807.641,235.053,807.592,240.129,807.461,245.207z"/>
				</g>
				<g>
					<path style="fill:#EC3B00;" d="M799.616,242.409c-0.973,41.218-7.522,82.574-23.791,119.758
						c-9.712,22.195-23.173,43.063-41.808,57.091c-18.634,14.028-42.962,20.462-64.645,13.181
						c-21.683-7.281-39.232-29.886-38.601-54.431c0.474-18.442,10.177-34.358,18.467-49.78c8.974-16.693,13.54-34.004,19.083-52.16
						c2.374-7.777,4.695-15.574,6.902-23.409c4.403-15.629,8.383-31.413,11.454-47.415c6.039-31.474,8.504-64.059,3.38-95.898
						c-6.63-41.2-26.064-79.256-53.268-109.097c-5.399-5.922,0.627-15.642,7.633-12.286c18.765,8.989,37.051,19.043,54.313,31.023
						c30.368,21.074,57.634,48.505,75.048,82.683c19.567,38.404,25.736,83.26,25.958,127.108
						C799.762,233.315,799.723,237.861,799.616,242.409z"/>
				</g>
				<g>
					<path style="fill:#F9CB93;" d="M783.702,262.793c-4.16,35.681-12.566,71.077-28.004,102.146
						c-9.216,18.546-21.169,35.668-36.481,46.482c-15.312,10.814-34.317,14.626-50.175,6.735
						c-15.858-7.891-27.306-28.773-24.789-50.018c1.891-15.962,10.578-29.062,18.153-41.836
						c8.199-13.827,13.103-28.51,18.818-43.855c2.448-6.573,4.857-13.168,7.183-19.803c4.64-13.236,8.973-26.637,12.632-40.295
						c7.198-26.861,11.774-54.945,10.527-82.934c-1.613-36.217-13.209-70.639-31.387-98.499c-3.607-5.529,1.775-13.522,6.815-10.102
						c13.501,9.16,26.55,19.21,38.662,30.855c21.307,20.486,39.731,46.26,50.115,77.171c11.668,34.733,12.628,74.089,9.156,112.137
						C784.569,254.915,784.161,258.856,783.702,262.793z"/>
				</g>
				<path style="fill:#601200;" d="M755.712,207.268c-3.101-5.853-7.786-11.493-14.268-11.933c-5.621-0.381-10.669,3.355-14.58,7.41
					c-11.425,11.847-17.819,27.609-22.738,43.315c-5.966,19.047-12.382,37.585-19.287,56.279
					c-7.185,19.453-16.879,38.095-20.541,58.687c-1.809,10.172-2.254,21.618,4.05,29.803c6.167,8.007,17.603,10.635,27.45,8.358
					s18.268-8.68,25.273-15.965c15.893-16.53,25.799-37.919,33.128-59.647c8.246-24.446,13.62-50.232,11.882-75.972
					c-0.902-13.366-3.762-26.711-9.581-38.777C756.25,208.307,755.987,207.787,755.712,207.268z"/>
				<path style="fill:#F9CB93;" d="M743.898,238.956c-2.166-4.088-5.438-8.027-9.965-8.334c-3.926-0.266-7.452,2.343-10.183,5.176
					c-7.979,8.274-12.445,19.283-15.881,30.252c-4.167,13.303-8.648,26.25-13.471,39.307c-5.018,13.586-11.789,26.607-14.346,40.988
					c-1.263,7.105-1.574,15.099,2.829,20.815c4.307,5.592,12.294,7.427,19.172,5.837c6.877-1.59,12.759-6.062,17.651-11.151
					c11.1-11.545,18.018-26.483,23.137-41.659c5.759-17.074,9.513-35.083,8.299-53.061c-0.63-9.335-2.627-18.656-6.692-27.083
					C744.274,239.682,744.09,239.319,743.898,238.956z"/>
				<path style="fill:#F49600;" d="M729.27,278.934c-1.342-2.533-3.369-4.973-6.174-5.163c-2.432-0.165-4.617,1.452-6.309,3.207
					c-4.944,5.126-7.711,11.947-9.839,18.743c-2.581,8.242-5.358,16.263-8.346,24.353c-3.109,8.417-7.304,16.484-8.888,25.394
					c-0.783,4.402-0.975,9.354,1.753,12.896c2.669,3.465,7.617,4.602,11.878,3.616c4.261-0.985,7.905-3.756,10.936-6.908
					c6.877-7.153,11.163-16.408,14.335-25.81c3.568-10.578,5.893-21.736,5.142-32.874c-0.39-5.784-1.628-11.558-4.146-16.779
					C729.502,279.383,729.389,279.158,729.27,278.934z"/>
				<path style="fill:#F49600;" d="M770.486,183.853c0.021-1.022-0.077-2.065-0.242-3c-7.421-42.036-24.375-82.052-48.949-115.53
					c-0.954-1.299-2.171-2.715-3.697-2.594c-1.728,0.137-2.743,2.132-3.331,3.9c-8.514,25.615,5.267,54.221,10.147,79.117
					c2.087,10.647,3.115,21.538,3.06,32.423c-0.013,2.514,0.072,5.41,1.882,6.979c2.024,1.754,4.961,0.839,7.462,0.107
					c8.954-2.619,18.76-1.645,27.127,2.694c1.186,0.615,2.461,1.315,3.751,1.04C769.73,188.554,770.437,186.265,770.486,183.853z"/>
				<path style="fill:#EC3B00;" d="M757.863,159.02c0.012-0.584-0.044-1.181-0.138-1.715c-4.242-24.028-13.933-46.901-27.979-66.038
					c-0.545-0.743-1.241-1.552-2.113-1.483c-0.988,0.078-1.568,1.219-1.904,2.229c-4.867,14.642,3.01,30.993,5.8,45.224
					c1.193,6.086,1.781,12.311,1.749,18.533c-0.007,1.437,0.041,3.092,1.076,3.989c1.157,1.003,2.836,0.479,4.266,0.061
					c5.118-1.497,10.724-0.941,15.506,1.54c0.678,0.352,1.407,0.752,2.144,0.594C757.431,161.708,757.835,160.399,757.863,159.02z"
					/>
			</g>
			<g>
				<g>
					<path style="fill:#601200;" d="M333.474,252.332c-3.388-3.811-7.177-7.259-11.364-10.243
						c-19.652-14.001-45.377-16.273-69.428-14.322c-39.187,3.18-76.817,16.141-115.185,24.72
						c-38.368,8.579-79.549,12.579-116.177-1.709c-16.278-6.35-31.281-16.183-48.308-20.102
						c-30.591-7.041-63.335,6.799-85.099,29.42c-64.971,67.531-53.159,182.674-3.591,255.129
						c33.907,49.562,89.045,84.784,148.691,91.749c42.736,4.99,86.489-4.227,125.382-22.63
						c38.893-18.403,73.128-45.707,102.712-76.95c38.429-40.585,69.751-88.765,85.685-142.338
						c6.37-21.416,10.264-43.99,7.219-66.125C351.667,281.891,344.809,265.082,333.474,252.332z"/>
				</g>
				<path style="fill:#EC3B00;" d="M324.564,308.945c-0.039-14.523-3.079-28.666-11.971-39.867
					c-11.208-14.12-29.866-20.648-47.882-21.294c-18.016-0.647-35.772,3.841-53.272,8.171
					c-66.107,16.358-136.248,30.844-201.423,11.1c-20.05-6.074-40.211-15.421-60.978-12.666c-20.939,2.777-38.66,17.821-49.8,35.768
					c-34.755,55.992-32.566,134.597-4.989,192.798c19.527,41.213,54.091,75.728,96.612,92.216
					c39.916,15.478,85.163,14.625,125.989,1.736c40.825-12.889,77.415-37.26,108.331-66.875
					c49.072-47.008,84.972-108.631,96.906-175.53C323.566,326.201,324.587,317.507,324.564,308.945z"/>
				<path style="fill:#F49600;" d="M284.28,328.276c-0.032-11.929-2.53-23.547-9.833-32.748
					c-9.207-11.599-24.533-16.961-39.332-17.492c-14.799-0.531-29.385,3.155-43.76,6.712
					c-54.303,13.437-111.919,25.336-165.456,9.117c-16.47-4.989-33.03-12.667-50.09-10.404c-17.2,2.281-31.756,14.639-40.907,29.381
					c-28.549,45.993-26.751,110.563-4.098,158.371c16.04,33.854,44.433,62.206,79.36,75.749
					c32.788,12.714,69.956,12.014,103.492,1.426c33.535-10.587,63.592-30.607,88.987-54.934
					c40.31-38.614,69.799-89.233,79.602-144.186C283.46,342.45,284.298,335.309,284.28,328.276z"/>
				<g>
					<path style="fill:#F9CB93;" d="M267.247,319.823c-0.705-1.682-1.516-3.332-2.442-4.943
						c-9.497-16.523-29.532-25.036-48.586-24.633c-54.076,1.143-100.184,53.576-122.707,98.112
						c-6.527,12.906-11.983,26.565-13.765,40.917c-1.782,14.353,0.365,29.537,8.102,41.756
						c10.079,15.917,28.922,25.159,47.743,25.999c18.821,0.839,37.442-6.011,52.982-16.663c15.54-10.652,28.261-24.937,39.523-40.04
						c15.087-20.234,27.897-42.315,36.365-66.092C270.695,356.737,274.293,336.641,267.247,319.823z"/>
					<path style="fill:#EC3B00;" d="M252.543,331.61c-0.592-1.414-1.274-2.8-2.052-4.154c-7.981-13.885-24.818-21.04-40.83-20.701
						c-45.445,0.96-84.193,45.024-103.12,82.452c-5.485,10.846-10.071,22.324-11.568,34.386c-1.497,12.062,0.307,24.822,6.809,35.09
						c8.471,13.376,24.305,21.143,40.122,21.848s31.465-5.052,44.525-14.003s23.75-20.957,33.214-33.649
						c12.679-17.004,23.444-35.561,30.56-55.542C255.441,362.632,258.465,345.743,252.543,331.61z"/>
					<path style="fill:#601200;" d="M234.219,346.3c-0.452-1.079-0.973-2.137-1.566-3.171
						c-6.092-10.598-18.943-16.059-31.165-15.801c-34.687,0.733-64.262,34.366-78.709,62.933
						c-4.187,8.279-7.687,17.039-8.829,26.246c-1.143,9.206,0.234,18.946,5.197,26.784c6.465,10.21,18.552,16.138,30.625,16.677
						c12.073,0.538,24.017-3.856,33.984-10.689c9.968-6.833,18.128-15.996,25.352-25.684c9.678-12.979,17.894-27.143,23.326-42.394
						C236.43,369.978,238.738,357.088,234.219,346.3z"/>
					<path style="fill:#F9CB93;" d="M212.564,363.659c-0.286-0.684-0.616-1.354-0.992-2.009
						c-3.859-6.714-12.001-10.173-19.743-10.01c-21.974,0.464-40.71,21.771-49.862,39.868c-2.652,5.245-4.869,10.795-5.594,16.627
						c-0.724,5.832,0.148,12.002,3.293,16.967c4.096,6.468,11.753,10.224,19.401,10.565c7.648,0.341,15.215-2.443,21.529-6.771
						c6.315-4.328,11.484-10.133,16.061-16.271c6.131-8.222,11.336-17.195,14.777-26.857
						C213.966,378.66,215.428,370.493,212.564,363.659z"/>
					<path style="fill:#F49600;" d="M164.941,399.208c1.811,3.014,4.578,5.377,8.013,6.217c5.037,1.231,10.343-0.905,14.782-3.653
						c8.276-5.123,15.369-13.194,16.49-22.735c0.421-3.58-0.06-7.349-1.974-10.383c-3.508-5.559-11.228-7.419-17.702-5.737
						c-12.456,3.237-22.82,15.993-21.946,28.873C162.781,394.383,163.598,396.974,164.941,399.208z"/>
				</g>
				<g>
					<g>
						<path style="fill:#EC3B00;" d="M111.047,336.232c-22.28,22.639-41.626,49.316-48.519,80.015
							c-7.001,31.181,1.094,67.02,26.234,87.303c3.339,2.694,6.967,5.127,9.67,8.436c2.703,3.309,4.383,7.793,3.065,11.832
							c-1.454,4.46-6.035,7.146-10.45,8.928c-14.604,5.893-31.141,6.262-46.547,2.86s-29.785-10.405-43.059-18.794
							c-22.776-14.393-42.93-33.304-56.334-56.397c-13.404-23.093-19.731-50.533-15.187-76.73
							c4.544-26.196,20.549-50.779,44.18-63.778c15.916-8.755,34.468-12.058,52.716-12.222c27.779-0.249,56.726,4.59,83.49,11.647
							c2.277,0.6,4.726,1.341,6.099,3.221c2.875,3.936-0.863,9.148-4.308,12.615C111.746,335.523,111.396,335.877,111.047,336.232z"
							/>
					</g>
					<g>
						<path style="fill:#F9CB93;" d="M83.939,345.431c-17.438,19.505-32.581,42.489-37.976,68.938
							c-5.48,26.864,0.856,57.742,20.534,75.218c2.613,2.321,5.453,4.417,7.569,7.268c2.116,2.851,3.43,6.714,2.399,10.194
							c-1.138,3.842-4.723,6.157-8.179,7.692c-11.431,5.078-24.374,5.395-36.432,2.464c-12.059-2.931-23.313-8.964-33.703-16.192
							c-17.827-12.4-33.601-28.693-44.093-48.589c-10.492-19.896-15.444-43.538-11.887-66.108
							c3.556-22.57,16.084-43.75,34.58-54.949c12.458-7.543,26.979-10.389,41.261-10.53c21.743-0.215,44.399,3.954,65.348,10.035
							c1.782,0.517,3.699,1.156,4.774,2.775c2.25,3.391-0.676,7.881-3.372,10.868C84.487,344.82,84.213,345.125,83.939,345.431z"/>
					</g>
					<g>
						<path style="fill:#601200;" d="M58.426,354.81c-12.327,16.884-23.031,36.779-26.845,59.674
							c-3.874,23.254,0.605,49.983,14.515,65.11c1.847,2.009,3.854,3.823,5.35,6.291c1.496,2.468,2.425,5.812,1.696,8.824
							c-0.805,3.326-3.339,5.33-5.782,6.658c-8.08,4.395-17.229,4.67-25.753,2.133s-16.479-7.76-23.824-14.016
							c-12.601-10.734-23.752-24.838-31.168-42.06c-7.416-17.223-10.917-37.687-8.403-57.224
							c2.514-19.537,11.369-37.871,24.444-47.565c8.806-6.529,19.071-8.993,29.167-9.115c15.37-0.186,31.385,3.423,46.194,8.686
							c1.26,0.448,2.615,1,3.375,2.402c1.591,2.935-0.478,6.822-2.384,9.408C58.813,354.281,58.619,354.545,58.426,354.81z"/>
					</g>
					<g>
						<path style="fill:#F49600;" d="M37.482,364.916c-8.57,13.945-16.011,30.378-18.663,49.288
							c-2.693,19.207,0.421,41.283,10.091,53.778c1.284,1.659,2.68,3.158,3.719,5.196c1.04,2.039,1.686,4.8,1.179,7.288
							c-0.559,2.747-2.321,4.402-4.019,5.499c-5.617,3.63-11.978,3.857-17.904,1.762c-5.926-2.095-11.456-6.409-16.562-11.577
							c-8.761-8.866-16.513-20.515-21.669-34.74c-5.156-14.225-7.59-31.128-5.842-47.265c1.748-16.137,7.904-31.28,16.994-39.286
							c6.122-5.393,13.258-7.428,20.277-7.529c10.685-0.154,21.819,2.827,32.114,7.174c0.876,0.37,1.818,0.826,2.346,1.984
							c1.106,2.424-0.332,5.635-1.657,7.771C37.751,364.478,37.616,364.697,37.482,364.916z"/>
					</g>
				</g>
			</g>
			<g>
				<g>
					<path style="fill:#F49600;" d="M522.453,532.022c-2.372,8.825-5.895,17.305-10.829,25.248
						c-11.176,17.991-28.838,31.472-48.429,39.519c-19.591,8.047-41.047,10.891-62.222,10.425
						c-27.171-0.599-55.081-6.981-76.63-23.542c-31.748-24.4-37.75-61.932-20.567-96.517
						c17.465-35.151,44.612-64.762,59.622-101.238c8.43-20.486,12.574-42.686,12.355-64.826c-0.115-11.597-1.424-23.185-3.94-34.508
						c-2.255-10.142-7.346-20.436-7.792-30.861c-0.255-5.961,1.731-12.406,6.624-15.821c8.804-6.145,20.72,0.32,29.052,7.091
						c59.714,48.537,98.466,119.495,118.117,193.895C525.636,470.499,530.221,503.115,522.453,532.022z"/>
				</g>
				<g>
					<path style="fill:#EC3B00;" d="M503.422,525.47c-2.334,7.297-5.619,14.26-10.065,20.717
						c-10.069,14.626-25.392,25.218-42.116,31.184c-16.724,5.966-34.805,7.501-52.519,6.275
						c-22.731-1.573-45.852-8.019-63.245-22.739c-25.625-21.687-29.17-53.354-13.415-81.64
						c16.013-28.748,39.916-52.474,53.925-82.429c7.868-16.823,12.214-35.251,12.905-53.801c0.362-9.717-0.277-19.473-1.938-29.054
						c-1.488-8.583-5.345-17.404-5.307-26.152c0.022-5.003,1.939-10.321,6.171-12.988c7.616-4.798,17.34,1.085,24.049,7.085
						c48.092,43.003,77.745,103.956,91.266,167.038C508.515,474.074,511.068,501.569,503.422,525.47z"/>
				</g>
				<g>
					<path style="fill:#601200;" d="M483.88,516.083c-2.302,5.742-5.35,11.159-9.303,16.102
						c-8.955,11.196-21.907,18.841-35.721,22.678c-13.814,3.837-28.463,4.029-42.658,2.017c-18.215-2.582-36.463-9.11-49.618-21.97
						c-19.383-18.947-20.407-44.655-6.083-66.523c14.558-22.226,35.18-39.951,48.194-63.265
						c7.309-13.093,11.875-27.683,13.504-42.582c0.853-7.804,0.903-15.698,0.119-23.51c-0.702-6.998-3.298-14.325-2.762-21.368
						c0.307-4.027,2.158-8.2,5.721-10.103c6.41-3.424,13.901,1.877,18.958,7.096c36.244,37.413,56.6,88.215,63.841,139.799
						C490.954,474.986,491.42,497.277,483.88,516.083z"/>
				</g>
				<g>
					<path style="fill:#F9CB93;" d="M457.742,505.943c-2.228,3.716-4.936,7.124-8.218,10.105
						c-7.433,6.751-17.238,10.603-27.217,11.726c-9.979,1.123-20.131-0.368-29.725-3.332c-12.311-3.804-24.208-10.34-31.881-20.692
						c-11.305-15.251-9.165-33.144,3.164-46.681c12.531-13.758,28.757-23.732,40.34-38.413c6.506-8.245,11.28-17.829,14.057-27.953
						c1.455-5.303,2.364-10.757,2.687-16.246c0.29-4.917-0.694-10.273,0.457-15.084c0.658-2.751,2.401-5.432,5.076-6.353
						c4.813-1.658,9.406,2.838,12.325,7.009c20.92,29.89,29.37,67.28,28.662,103.757
						C467.187,478.305,465.04,493.772,457.742,505.943z"/>
				</g>
				<path style="fill:#EC3B00;" d="M456.872,458.598c-0.652-8.967-3.872-17.749-10.451-23.72
					c-11.423-10.367-30.06-9.188-43.012-0.807c-24.02,15.543-40.969,56.719-8.744,73.288c13.006,6.688,29.62,4.756,41.58-3.661
					c11.96-8.417,19.256-22.639,20.556-37.207C457.033,463.889,457.063,461.236,456.872,458.598z"/>
				<path style="fill:#F49600;" d="M440.53,463.026c-0.385-5.297-2.287-10.483-6.173-14.01c-6.747-6.124-17.755-5.427-25.406-0.477
					c-14.188,9.181-24.199,33.501-5.164,43.288c7.682,3.95,17.495,2.809,24.56-2.162c7.065-4.971,11.374-13.372,12.142-21.977
					C440.625,466.151,440.643,464.584,440.53,463.026z"/>
			</g>
		</g>
	</g>
</g>
</svg>
